<svg width="210" height="41" viewBox="0 0 210 41" fill="none" xmlns="http://www.w3.org/2000/svg">
<path d="M51.336 32V9.6H54.792V18.912H55.304L63.656 9.6H68.168L58.056 20.64L68.52 32H63.88L55.304 22.496H54.792V32H51.336ZM76.1093 32.448C74.9786 32.448 73.9653 32.256 73.0693 31.872C72.1946 31.488 71.4906 30.9227 70.9573 30.176C70.4453 29.4293 70.1893 28.5227 70.1893 27.456C70.1893 26.368 70.4453 25.472 70.9573 24.768C71.4906 24.0427 72.2053 23.4987 73.1013 23.136C74.0186 22.7733 75.0533 22.592 76.2053 22.592H81.0053V21.568C81.0053 20.6507 80.7279 19.9147 80.1733 19.36C79.6186 18.8053 78.7653 18.528 77.6133 18.528C76.4826 18.528 75.6186 18.7947 75.0213 19.328C74.4239 19.8613 74.0293 20.5547 73.8373 21.408L70.7653 20.416C71.0213 19.5627 71.4266 18.7947 71.9813 18.112C72.5573 17.408 73.3146 16.8427 74.2533 16.416C75.1919 15.9893 76.3226 15.776 77.6453 15.776C79.6933 15.776 81.3039 16.2987 82.4773 17.344C83.6506 18.3893 84.2373 19.872 84.2373 21.792V28.288C84.2373 28.928 84.5359 29.248 85.1333 29.248H86.4773V32H84.0133C83.2666 32 82.6586 31.808 82.1893 31.424C81.7199 31.04 81.4853 30.5173 81.4853 29.856V29.76H81.0053C80.8346 30.08 80.5786 30.4533 80.2373 30.88C79.8959 31.3067 79.3946 31.68 78.7333 32C78.0719 32.2987 77.1973 32.448 76.1093 32.448ZM76.5893 29.728C77.9119 29.728 78.9786 29.3547 79.7893 28.608C80.5999 27.84 81.0053 26.7947 81.0053 25.472V25.152H76.3973C75.5226 25.152 74.8186 25.344 74.2853 25.728C73.7519 26.0907 73.4852 26.6347 73.4852 27.36C73.4852 28.0853 73.7626 28.6613 74.3173 29.088C74.8719 29.5147 75.6293 29.728 76.5893 29.728ZM89.682 32V16.224H92.914V18.08H93.426C93.7247 17.5253 94.2047 17.0347 94.866 16.608C95.5273 16.1813 96.4233 15.968 97.554 15.968C98.7273 15.968 99.666 16.2133 100.37 16.704C101.095 17.1733 101.639 17.7813 102.002 18.528H102.514C102.877 17.8027 103.399 17.1947 104.082 16.704C104.786 16.2133 105.778 15.968 107.058 15.968C108.082 15.968 108.989 16.1813 109.778 16.608C110.567 17.0133 111.197 17.632 111.666 18.464C112.135 19.2747 112.37 20.288 112.37 21.504V32H109.074V21.76C109.074 20.8 108.807 20.064 108.274 19.552C107.762 19.0187 107.026 18.752 106.066 18.752C105.042 18.752 104.221 19.0827 103.602 19.744C102.983 20.4053 102.674 21.3547 102.674 22.592V32H99.378V21.76C99.378 20.8 99.1113 20.064 98.578 19.552C98.066 19.0187 97.33 18.752 96.37 18.752C95.346 18.752 94.5247 19.0827 93.906 19.744C93.2873 20.4053 92.978 21.3547 92.978 22.592V32H89.682ZM124.512 32.448C122.933 32.448 121.525 32.128 120.288 31.488C119.072 30.8267 118.112 29.888 117.408 28.672C116.704 27.456 116.352 26.016 116.352 24.352V23.872C116.352 22.208 116.704 20.7787 117.408 19.584C118.112 18.368 119.072 17.4293 120.288 16.768C121.525 16.1067 122.933 15.776 124.512 15.776C126.09 15.776 127.498 16.1067 128.736 16.768C129.973 17.4293 130.944 18.368 131.648 19.584C132.352 20.7787 132.704 22.208 132.704 23.872V24.352C132.704 26.016 132.352 27.456 131.648 28.672C130.944 29.888 129.973 30.8267 128.736 31.488C127.498 32.128 126.09 32.448 124.512 32.448ZM124.512 29.504C125.962 29.504 127.136 29.0453 128.032 28.128C128.949 27.1893 129.408 25.8987 129.408 24.256V23.968C129.408 22.3253 128.96 21.0453 128.064 20.128C127.168 19.1893 125.984 18.72 124.512 18.72C123.082 18.72 121.909 19.1893 120.992 20.128C120.096 21.0453 119.648 22.3253 119.648 23.968V24.256C119.648 25.8987 120.096 27.1893 120.992 28.128C121.909 29.0453 123.082 29.504 124.512 29.504ZM142.133 32C141.173 32 140.405 31.712 139.829 31.136C139.275 30.56 138.997 29.792 138.997 28.832V19.008H134.645V16.224H138.997V11.008H142.293V16.224H146.997V19.008H142.293V28.256C142.293 28.896 142.592 29.216 143.189 29.216H146.485V32H142.133ZM157.699 32.448C156.12 32.448 154.712 32.128 153.475 31.488C152.259 30.8267 151.299 29.888 150.595 28.672C149.891 27.456 149.539 26.016 149.539 24.352V23.872C149.539 22.208 149.891 20.7787 150.595 19.584C151.299 18.368 152.259 17.4293 153.475 16.768C154.712 16.1067 156.12 15.776 157.699 15.776C159.278 15.776 160.686 16.1067 161.923 16.768C163.16 17.4293 164.131 18.368 164.835 19.584C165.539 20.7787 165.891 22.208 165.891 23.872V24.352C165.891 26.016 165.539 27.456 164.835 28.672C164.131 29.888 163.16 30.8267 161.923 31.488C160.686 32.128 159.278 32.448 157.699 32.448ZM157.699 29.504C159.15 29.504 160.323 29.0453 161.219 28.128C162.136 27.1893 162.595 25.8987 162.595 24.256V23.968C162.595 22.3253 162.147 21.0453 161.251 20.128C160.355 19.1893 159.171 18.72 157.699 18.72C156.27 18.72 155.096 19.1893 154.179 20.128C153.283 21.0453 152.835 22.3253 152.835 23.968V24.256C152.835 25.8987 153.283 27.1893 154.179 28.128C155.096 29.0453 156.27 29.504 157.699 29.504Z" fill="#C2D24B"/>
<path d="M168.235 32L174.635 9.6H180.715L187.083 32H183.531L182.059 26.72H173.291L171.819 32H168.235ZM174.155 23.52H181.195L177.931 11.744H177.419L174.155 23.52ZM190.117 32V9.6H193.573V32H190.117ZM200.322 32.448C199.576 32.448 198.946 32.2027 198.434 31.712C197.944 31.2213 197.698 30.592 197.698 29.824C197.698 29.056 197.944 28.4373 198.434 27.968C198.946 27.4773 199.576 27.232 200.322 27.232C201.069 27.232 201.688 27.4773 202.178 27.968C202.69 28.4587 202.946 29.0773 202.946 29.824C202.946 30.592 202.69 31.2213 202.178 31.712C201.688 32.2027 201.069 32.448 200.322 32.448Z" fill="white"/>
<rect x="7" y="3" width="35" height="35" rx="7" stroke="#C2D24B" stroke-width="2"/>
<path d="M19.7686 8.05244C18.2621 8.34102 17.049 9.28015 16.374 10.6888C16.1197 11.2269 15.9876 11.76 15.9534 12.4155L15.924 12.9584L15.5034 13.066C14.4518 13.3252 13.4099 14.0443 12.8132 14.9247C12.5295 15.3453 12.2409 15.9568 12.1137 16.4214C11.9621 16.9839 11.9621 18.1578 12.1137 18.7105C12.2409 19.1752 12.5295 19.8062 12.8034 20.2073L13.0088 20.5057L12.8083 20.7991C12.5246 21.2149 12.2409 21.8263 12.1137 22.291C11.9621 22.8535 11.9621 24.0274 12.1137 24.5899C12.5637 26.2382 13.8844 27.5491 15.5034 27.9453L15.924 28.0529L15.9534 28.5958C16.0463 30.3616 17.0441 31.8388 18.6583 32.5969C19.3479 32.9197 19.7148 32.9931 20.5854 32.9931C21.2066 32.9931 21.4121 32.9735 21.7349 32.8904C22.2289 32.7583 23.0066 32.3719 23.437 32.0491L23.7648 31.7947V20.5057V9.21656L23.437 8.96222C23.0017 8.6345 22.224 8.25298 21.7349 8.12581C21.2311 7.99374 20.2577 7.9595 19.7686 8.05244Z" fill="#C2D24B"/>
<path d="M27.5946 8.05247C26.7974 8.2041 26.0588 8.55627 25.418 9.07964L25.2321 9.23127V12.0535V14.8807H26.0294H26.8218L26.9441 14.6215C27.1006 14.2889 27.58 13.8144 27.9321 13.6432C29.2577 13.0073 30.8131 13.8144 31.0626 15.2671C31.2631 16.441 30.4463 17.5709 29.2479 17.7763C28.3479 17.928 27.399 17.4682 26.9881 16.666L26.8218 16.3481H26.0294H25.2321V18.06V19.772H27.0077H28.7783L28.9006 19.5128C29.0571 19.1801 29.5365 18.7057 29.8887 18.5345C30.9696 18.016 32.2707 18.4513 32.8087 19.5176C33.4789 20.8432 32.6718 22.4133 31.1995 22.6676C30.3044 22.8193 29.3555 22.3546 28.9446 21.5573L28.7783 21.2394H27.0077H25.2321V22.9513V24.6633H26.0294H26.8218L26.9441 24.404C27.1006 24.0714 27.58 23.597 27.9321 23.4258C29.2577 22.7899 30.8131 23.597 31.0626 25.0497C31.2631 26.2236 30.4463 27.3535 29.2479 27.5589C28.3479 27.7105 27.399 27.2508 26.9881 26.4486L26.8218 26.1307H26.0294H25.2321V28.9529V31.7801L25.418 31.9317C25.9365 32.3573 26.6311 32.7192 27.262 32.8855C27.8441 33.0469 28.9544 33.0469 29.5365 32.8904C30.9403 32.5089 32.0164 31.6089 32.6229 30.3176C32.8821 29.7649 33.0093 29.2366 33.0435 28.5959L33.0729 28.0529L33.4935 27.9453C35.1125 27.5491 36.4332 26.2383 36.8783 24.5899C37.0397 24.0078 37.0397 22.8975 36.8832 22.3155C36.7462 21.8165 36.4723 21.2149 36.1935 20.8041L35.9881 20.5057L36.1935 20.2073C36.4723 19.7964 36.7462 19.1948 36.8832 18.6959C37.0397 18.1138 37.0397 17.0035 36.8783 16.4215C36.4332 14.7731 35.1125 13.4622 33.4935 13.066L33.0729 12.9584L33.0435 12.4155C32.9799 11.2416 32.5153 10.1851 31.6935 9.35355C31.1359 8.79106 30.3338 8.33127 29.5609 8.12584C29.0571 7.99378 28.0887 7.95954 27.5946 8.05247Z" fill="#C2D24B"/>
<path d="M28.5484 14.9834C28.3381 15.091 28.1669 15.3796 28.1669 15.6144C28.1669 15.859 28.3381 16.1378 28.5582 16.2503C28.6609 16.3041 28.8174 16.3481 28.9006 16.3481C28.9837 16.3481 29.1403 16.3041 29.243 16.2503C29.4631 16.1378 29.6343 15.859 29.6343 15.6144C29.6343 15.3698 29.4631 15.091 29.243 14.9785C29.0033 14.8562 28.7832 14.8562 28.5484 14.9834Z" fill="#C2D24B"/>
<path d="M30.505 19.8747C30.2947 19.9823 30.1235 20.2709 30.1235 20.5057C30.1235 20.7503 30.2947 21.0291 30.5148 21.1416C30.6175 21.1954 30.774 21.2394 30.8572 21.2394C31.1017 21.2394 31.3805 21.0682 31.493 20.8481C31.5468 20.7454 31.5909 20.5888 31.5909 20.5057C31.5909 20.2611 31.4197 19.9823 31.1996 19.8698C30.9599 19.7475 30.7398 19.7475 30.505 19.8747Z" fill="#C2D24B"/>
<path d="M28.5484 24.766C28.3381 24.8736 28.1669 25.1622 28.1669 25.397C28.1669 25.4801 28.2109 25.6367 28.2647 25.7394C28.3772 25.9595 28.656 26.1307 28.9006 26.1307C29.2723 26.1307 29.6343 25.7687 29.6343 25.397C29.6343 25.1524 29.4631 24.8736 29.243 24.7611C29.0033 24.6388 28.7832 24.6388 28.5484 24.766Z" fill="#C2D24B"/>
</svg>
